<svg width="1440" height="1024" viewBox="0 0 1440 1024" fill="none" xmlns="http://www.w3.org/2000/svg">
<rect width="1440" height="1024" fill="#05A2FC"/>
<path d="M878.514 608.086C879.019 600.48 865.734 593.901 858.22 593.388C857.539 593.34 856.862 593.348 856.2 593.402C855.938 586.598 850.639 580.951 843.777 580.481C841.73 580.342 839.761 580.678 837.976 581.395C833.966 575.72 827.569 571.834 820.151 571.329C808.533 570.538 798.3 578.297 795.46 589.288C793.653 588.352 791.631 587.766 789.478 587.621C780.978 587.042 773.622 593.544 773.048 602.147C772.479 610.75 778.903 618.193 787.408 618.772C788.398 618.84 789.372 618.807 790.321 618.691C790.895 625.39 796.225 630.847 803.059 631.314C805.593 631.484 808.015 630.948 810.131 629.871C812.586 633.778 816.78 636.49 821.696 636.826C828.28 637.273 834.15 633.319 836.494 627.447C838.495 629.168 841.041 630.283 843.868 630.476C850.04 630.895 855.474 626.788 857.005 620.959C864.255 621.122 878.021 615.483 878.514 608.086Z" fill="#FBE6EF"/>
<path d="M806.726 603.782C807.209 596.54 801.795 590.275 794.642 589.787C793.99 589.743 793.351 589.747 792.721 589.798C792.474 583.317 787.425 577.94 780.89 577.496C778.943 577.365 777.07 577.681 775.366 578.365C771.547 572.96 765.458 569.26 758.392 568.779C747.33 568.027 737.585 575.414 734.881 585.881C733.159 584.992 731.237 584.431 729.187 584.293C721.092 583.744 714.089 589.937 713.545 598.125C713 606.316 719.12 613.401 727.215 613.954C728.157 614.02 729.084 613.99 729.989 613.878C730.538 620.256 735.609 625.451 742.119 625.895C744.534 626.06 746.84 625.55 748.853 624.524C751.19 628.244 755.186 630.825 759.863 631.145C766.13 631.572 771.721 627.807 773.953 622.215C775.86 623.857 778.284 624.916 780.974 625.099C786.848 625.5 792.025 621.586 793.482 616.037C800.39 616.194 806.26 610.824 806.726 603.782Z" fill="#FBE6EF"/>
<path d="M844.645 634.979C847 626.831 842.242 618.254 834.016 615.819C833.27 615.597 832.519 615.437 831.772 615.327C833.089 607.859 828.538 600.389 821.024 598.168C818.787 597.506 816.522 597.377 814.371 597.713C811.257 590.534 805.068 584.712 796.949 582.309C784.235 578.549 771.047 584.435 765.299 595.686C763.514 594.218 761.408 593.075 759.051 592.376C749.748 589.623 740.047 594.862 737.382 604.081C734.719 613.3 740.103 623.001 749.405 625.753C750.488 626.074 751.577 626.286 752.661 626.394C751.721 633.825 756.349 641.097 763.826 643.309C766.601 644.133 769.416 644.15 772.021 643.506C773.825 648.371 777.844 652.368 783.224 653.959C790.429 656.088 797.876 653.252 801.866 647.45C803.683 649.824 806.248 651.672 809.34 652.586C816.091 654.585 823.096 651.472 826.168 645.513C834.178 647.5 842.352 642.902 844.645 634.979Z" fill="#FAD5E5"/>
<path d="M859.527 627.206C859.14 621.269 854.017 616.765 848.089 617.152C847.552 617.187 847.026 617.26 846.511 617.369C845.605 612.13 840.881 608.308 835.463 608.66C833.851 608.767 832.346 609.229 831.022 609.968C827.301 605.989 821.899 603.647 816.048 604.025C806.885 604.619 799.683 611.686 798.594 620.487C797.086 619.951 795.444 619.706 793.747 619.816C787.04 620.25 781.961 626.049 782.4 632.762C782.837 639.475 788.629 644.573 795.338 644.136C796.118 644.085 796.88 643.961 797.608 643.773C798.749 648.894 803.474 652.568 808.869 652.218C810.87 652.087 812.707 651.422 814.252 650.366C816.574 653.132 820.132 654.797 824.011 654.545C829.204 654.209 833.388 650.536 834.612 645.753C836.357 646.877 838.463 647.475 840.692 647.333C845.562 647.016 849.388 643.274 849.981 638.606C855.666 637.987 859.905 632.98 859.527 627.206Z" fill="#FAD5E5"/>
<path d="M731.278 620.453C731.658 613.86 737.21 608.825 743.676 609.207C744.265 609.244 744.838 609.319 745.398 609.439C746.347 603.619 751.469 599.344 757.376 599.693C759.135 599.8 760.78 600.302 762.226 601.113C766.251 596.672 772.124 594.032 778.509 594.411C788.504 595 796.405 602.793 797.652 612.549C799.293 611.945 801.078 611.661 802.934 611.77C810.249 612.204 815.828 618.6 815.397 626.055C814.967 633.513 808.688 639.207 801.373 638.776C800.519 638.726 799.691 638.594 798.896 638.391C797.689 644.085 792.564 648.195 786.682 647.85C784.5 647.722 782.491 646.994 780.802 645.836C778.293 648.928 774.421 650.798 770.193 650.548C764.529 650.212 759.944 646.172 758.571 640.867C756.68 642.129 754.389 642.807 751.959 642.662C746.653 642.348 742.453 638.221 741.769 633.042C735.565 632.387 730.91 626.865 731.278 620.453Z" fill="#FAD5E5"/>
<path d="M1304.51 196.086C1305.02 188.48 1291.73 181.901 1284.22 181.388C1283.54 181.34 1282.86 181.348 1282.2 181.402C1281.94 174.598 1276.64 168.951 1269.78 168.481C1267.73 168.342 1265.76 168.678 1263.98 169.395C1259.97 163.72 1253.57 159.834 1246.15 159.329C1234.53 158.538 1224.3 166.297 1221.46 177.288C1219.65 176.352 1217.63 175.766 1215.48 175.621C1206.98 175.042 1199.62 181.544 1199.05 190.147C1198.48 198.75 1204.9 206.193 1213.41 206.772C1214.4 206.84 1215.37 206.807 1216.32 206.691C1216.9 213.39 1222.22 218.847 1229.06 219.314C1231.59 219.484 1234.01 218.948 1236.13 217.871C1238.59 221.778 1242.78 224.49 1247.7 224.826C1254.28 225.273 1260.15 221.319 1262.49 215.447C1264.49 217.168 1267.04 218.283 1269.87 218.476C1276.04 218.895 1281.47 214.788 1283.01 208.959C1290.25 209.122 1304.02 203.483 1304.51 196.086Z" fill="#FBE6EF"/>
<path d="M1232.73 191.782C1233.21 184.54 1227.8 178.275 1220.64 177.787C1219.99 177.743 1219.35 177.747 1218.72 177.798C1218.47 171.317 1213.43 165.94 1206.89 165.496C1204.94 165.365 1203.07 165.681 1201.37 166.365C1197.55 160.96 1191.46 157.26 1184.39 156.779C1173.33 156.027 1163.58 163.414 1160.88 173.881C1159.16 172.992 1157.24 172.431 1155.19 172.293C1147.09 171.744 1140.09 177.937 1139.55 186.125C1139 194.316 1145.12 201.401 1153.21 201.954C1154.16 202.02 1155.08 201.99 1155.99 201.878C1156.54 208.256 1161.61 213.451 1168.12 213.895C1170.53 214.06 1172.84 213.55 1174.85 212.524C1177.19 216.244 1181.19 218.825 1185.86 219.145C1192.13 219.572 1197.72 215.807 1199.95 210.215C1201.86 211.857 1204.28 212.916 1206.97 213.099C1212.85 213.5 1218.02 209.586 1219.48 204.037C1226.39 204.194 1232.26 198.824 1232.73 191.782Z" fill="#FBE6EF"/>
<path d="M1270.64 222.979C1273 214.831 1268.24 206.254 1260.02 203.819C1259.27 203.597 1258.52 203.437 1257.77 203.327C1259.09 195.859 1254.54 188.389 1247.02 186.168C1244.79 185.506 1242.52 185.377 1240.37 185.713C1237.26 178.534 1231.07 172.712 1222.95 170.309C1210.24 166.549 1197.05 172.435 1191.3 183.686C1189.51 182.218 1187.41 181.075 1185.05 180.376C1175.75 177.623 1166.05 182.862 1163.38 192.081C1160.72 201.3 1166.1 211.001 1175.41 213.753C1176.49 214.074 1177.58 214.286 1178.66 214.394C1177.72 221.825 1182.35 229.097 1189.83 231.309C1192.6 232.133 1195.42 232.15 1198.02 231.506C1199.82 236.371 1203.84 240.368 1209.22 241.959C1216.43 244.088 1223.88 241.252 1227.87 235.45C1229.68 237.824 1232.25 239.672 1235.34 240.586C1242.09 242.585 1249.1 239.472 1252.17 233.513C1260.18 235.5 1268.35 230.902 1270.64 222.979Z" fill="#FAD5E5"/>
<path d="M1285.53 215.206C1285.14 209.269 1280.02 204.765 1274.09 205.152C1273.55 205.187 1273.03 205.26 1272.51 205.369C1271.61 200.13 1266.88 196.308 1261.46 196.66C1259.85 196.767 1258.35 197.229 1257.02 197.968C1253.3 193.989 1247.9 191.647 1242.05 192.025C1232.89 192.619 1225.68 199.686 1224.59 208.487C1223.09 207.951 1221.44 207.706 1219.75 207.816C1213.04 208.25 1207.96 214.049 1208.4 220.762C1208.84 227.475 1214.63 232.573 1221.34 232.136C1222.12 232.085 1222.88 231.961 1223.61 231.773C1224.75 236.894 1229.47 240.568 1234.87 240.218C1236.87 240.087 1238.71 239.422 1240.25 238.366C1242.57 241.132 1246.13 242.797 1250.01 242.545C1255.2 242.209 1259.39 238.536 1260.61 233.753C1262.36 234.877 1264.46 235.475 1266.69 235.333C1271.56 235.016 1275.39 231.274 1275.98 226.606C1281.67 225.987 1285.9 220.98 1285.53 215.206Z" fill="#FAD5E5"/>
<path d="M1157.28 208.453C1157.66 201.86 1163.21 196.825 1169.68 197.207C1170.27 197.244 1170.84 197.319 1171.4 197.439C1172.35 191.619 1177.47 187.344 1183.38 187.693C1185.14 187.8 1186.78 188.302 1188.23 189.113C1192.25 184.672 1198.12 182.032 1204.51 182.411C1214.5 183 1222.41 190.793 1223.65 200.549C1225.29 199.945 1227.08 199.661 1228.93 199.77C1236.25 200.204 1241.83 206.6 1241.4 214.055C1240.97 221.513 1234.69 227.207 1227.37 226.776C1226.52 226.726 1225.69 226.594 1224.9 226.391C1223.69 232.085 1218.56 236.195 1212.68 235.85C1210.5 235.722 1208.49 234.994 1206.8 233.836C1204.29 236.928 1200.42 238.798 1196.19 238.548C1190.53 238.212 1185.94 234.172 1184.57 228.867C1182.68 230.129 1180.39 230.807 1177.96 230.662C1172.65 230.348 1168.45 226.221 1167.77 221.042C1161.57 220.387 1156.91 214.865 1157.28 208.453Z" fill="#FAD5E5"/>
<path d="M1157.28 208.453C1157.66 201.86 1163.21 196.825 1169.68 197.207C1170.27 197.244 1170.84 197.319 1171.4 197.439C1172.35 191.619 1177.47 187.344 1183.38 187.693C1185.14 187.8 1186.78 188.302 1188.23 189.113C1192.25 184.672 1198.12 182.032 1204.51 182.411C1214.5 183 1222.41 190.793 1223.65 200.549C1225.29 199.945 1227.08 199.661 1228.93 199.77C1236.25 200.204 1241.83 206.6 1241.4 214.055C1240.97 221.513 1234.69 227.207 1227.37 226.776C1226.52 226.726 1225.69 226.594 1224.9 226.391C1223.69 232.085 1218.56 236.195 1212.68 235.85C1210.5 235.722 1208.49 234.994 1206.8 233.836C1204.29 236.928 1200.42 238.798 1196.19 238.548C1190.53 238.212 1185.94 234.172 1184.57 228.867C1182.68 230.129 1180.39 230.807 1177.96 230.662C1172.65 230.348 1168.45 226.221 1167.77 221.042C1161.57 220.387 1156.91 214.865 1157.28 208.453Z" fill="#FAD5E5"/>
<path d="M947.514 133.086C948.019 125.48 934.734 118.901 927.22 118.388C926.539 118.34 925.862 118.348 925.2 118.402C924.938 111.598 919.639 105.951 912.777 105.481C910.73 105.342 908.761 105.678 906.976 106.395C902.966 100.72 896.569 96.8341 889.151 96.3286C877.533 95.5378 867.3 103.297 864.46 114.288C862.653 113.352 860.631 112.766 858.478 112.621C849.978 112.042 842.622 118.544 842.048 127.147C841.479 135.75 847.903 143.193 856.408 143.772C857.398 143.84 858.372 143.807 859.321 143.691C859.895 150.39 865.225 155.847 872.059 156.314C874.593 156.484 877.015 155.948 879.131 154.871C881.586 158.778 885.78 161.49 890.696 161.826C897.28 162.273 903.15 158.319 905.494 152.447C907.495 154.168 910.041 155.283 912.868 155.476C919.04 155.895 924.474 151.788 926.005 145.959C933.255 146.122 947.021 140.483 947.514 133.086Z" fill="#FBE6EF"/>
<path d="M875.726 128.782C876.209 121.54 870.795 115.275 863.642 114.787C862.99 114.743 862.351 114.747 861.721 114.798C861.474 108.317 856.425 102.94 849.89 102.496C847.943 102.365 846.07 102.681 844.366 103.365C840.547 97.9602 834.458 94.2599 827.392 93.7795C816.33 93.0271 806.585 100.414 803.881 110.881C802.159 109.992 800.237 109.431 798.187 109.293C790.092 108.744 783.089 114.937 782.545 123.125C782 131.316 788.12 138.401 796.215 138.954C797.157 139.02 798.084 138.99 798.989 138.878C799.538 145.256 804.609 150.451 811.119 150.895C813.534 151.06 815.84 150.55 817.853 149.524C820.19 153.244 824.186 155.825 828.863 156.145C835.13 156.572 840.721 152.807 842.953 147.215C844.86 148.857 847.284 149.916 849.974 150.099C855.848 150.5 861.025 146.586 862.482 141.037C869.39 141.194 875.26 135.824 875.726 128.782Z" fill="#FBE6EF"/>
<path d="M913.645 159.979C916 151.831 911.242 143.254 903.016 140.819C902.27 140.597 901.519 140.437 900.772 140.327C902.089 132.859 897.538 125.389 890.024 123.168C887.787 122.506 885.522 122.377 883.371 122.713C880.257 115.534 874.068 109.712 865.949 107.309C853.235 103.549 840.047 109.435 834.299 120.686C832.514 119.218 830.408 118.075 828.051 117.376C818.748 114.623 809.047 119.862 806.382 129.081C803.719 138.3 809.103 148.001 818.405 150.753C819.488 151.074 820.577 151.286 821.661 151.394C820.721 158.825 825.349 166.097 832.826 168.309C835.601 169.133 838.416 169.15 841.021 168.506C842.825 173.371 846.844 177.368 852.224 178.959C859.429 181.088 866.876 178.252 870.866 172.45C872.683 174.824 875.248 176.672 878.34 177.586C885.091 179.585 892.096 176.472 895.168 170.513C903.178 172.5 911.352 167.902 913.645 159.979Z" fill="#FAD5E5"/>
<path d="M928.527 152.206C928.14 146.269 923.017 141.765 917.089 142.152C916.552 142.187 916.026 142.26 915.511 142.369C914.605 137.13 909.881 133.308 904.463 133.66C902.851 133.767 901.346 134.229 900.022 134.968C896.301 130.989 890.899 128.647 885.048 129.025C875.885 129.619 868.683 136.686 867.594 145.487C866.086 144.951 864.444 144.706 862.747 144.816C856.04 145.25 850.961 151.049 851.4 157.762C851.837 164.475 857.629 169.573 864.338 169.136C865.118 169.085 865.88 168.961 866.608 168.773C867.749 173.894 872.474 177.568 877.869 177.218C879.87 177.087 881.707 176.422 883.252 175.366C885.574 178.132 889.132 179.797 893.011 179.545C898.204 179.209 902.388 175.536 903.612 170.753C905.357 171.877 907.463 172.475 909.692 172.333C914.562 172.016 918.388 168.274 918.981 163.606C924.666 162.987 928.905 157.98 928.527 152.206Z" fill="#FAD5E5"/>
<path d="M800.278 145.453C800.658 138.86 806.21 133.825 812.676 134.207C813.265 134.244 813.838 134.319 814.398 134.439C815.347 128.619 820.469 124.344 826.376 124.693C828.135 124.8 829.78 125.302 831.226 126.113C835.251 121.672 841.124 119.032 847.509 119.411C857.504 120 865.405 127.793 866.652 137.549C868.293 136.945 870.078 136.661 871.934 136.77C879.249 137.204 884.828 143.6 884.397 151.055C883.967 158.513 877.688 164.207 870.373 163.776C869.519 163.726 868.691 163.594 867.896 163.391C866.689 169.085 861.564 173.195 855.682 172.85C853.5 172.722 851.491 171.994 849.802 170.836C847.293 173.928 843.421 175.798 839.193 175.548C833.529 175.212 828.944 171.172 827.571 165.867C825.68 167.129 823.389 167.807 820.959 167.662C815.653 167.348 811.453 163.221 810.769 158.042C804.565 157.387 799.91 151.865 800.278 145.453Z" fill="#FAD5E5"/>
<path d="M800.278 145.453C800.658 138.86 806.21 133.825 812.676 134.207C813.265 134.244 813.838 134.319 814.398 134.439C815.347 128.619 820.469 124.344 826.376 124.693C828.135 124.8 829.78 125.302 831.226 126.113C835.251 121.672 841.124 119.032 847.509 119.411C857.504 120 865.405 127.793 866.652 137.549C868.293 136.945 870.078 136.661 871.934 136.77C879.249 137.204 884.828 143.6 884.397 151.055C883.967 158.513 877.688 164.207 870.373 163.776C869.519 163.726 868.691 163.594 867.896 163.391C866.689 169.085 861.564 173.195 855.682 172.85C853.5 172.722 851.491 171.994 849.802 170.836C847.293 173.928 843.421 175.798 839.193 175.548C833.529 175.212 828.944 171.172 827.571 165.867C825.68 167.129 823.389 167.807 820.959 167.662C815.653 167.348 811.453 163.221 810.769 158.042C804.565 157.387 799.91 151.865 800.278 145.453Z" fill="#FAD5E5"/>
<path d="M511.514 207.086C512.019 199.48 498.734 192.901 491.22 192.388C490.539 192.34 489.862 192.348 489.2 192.402C488.938 185.598 483.639 179.951 476.777 179.481C474.73 179.342 472.761 179.678 470.976 180.395C466.966 174.72 460.569 170.834 453.151 170.329C441.533 169.538 431.3 177.297 428.46 188.288C426.653 187.352 424.631 186.766 422.478 186.621C413.978 186.042 406.622 192.544 406.048 201.147C405.479 209.75 411.903 217.193 420.408 217.772C421.398 217.84 422.372 217.807 423.321 217.691C423.895 224.39 429.225 229.847 436.059 230.314C438.593 230.484 441.015 229.948 443.131 228.871C445.586 232.778 449.78 235.49 454.696 235.826C461.28 236.273 467.15 232.319 469.494 226.447C471.495 228.168 474.041 229.283 476.868 229.476C483.04 229.895 488.474 225.788 490.005 219.959C497.255 220.122 511.021 214.483 511.514 207.086Z" fill="#FBE6EF"/>
<path d="M439.726 202.782C440.209 195.54 434.795 189.275 427.642 188.787C426.991 188.743 426.351 188.747 425.721 188.798C425.474 182.317 420.425 176.94 413.89 176.496C411.943 176.365 410.07 176.681 408.367 177.365C404.547 171.96 398.458 168.26 391.392 167.779C380.33 167.027 370.585 174.414 367.881 184.881C366.159 183.992 364.237 183.431 362.187 183.293C354.092 182.744 347.089 188.937 346.545 197.125C346 205.316 352.12 212.401 360.215 212.954C361.157 213.02 362.084 212.99 362.989 212.878C363.538 219.256 368.609 224.451 375.119 224.895C377.534 225.06 379.84 224.55 381.853 223.524C384.19 227.244 388.186 229.825 392.863 230.145C399.13 230.572 404.721 226.807 406.953 221.215C408.86 222.857 411.284 223.916 413.974 224.099C419.848 224.5 425.025 220.586 426.482 215.037C433.39 215.194 439.26 209.824 439.726 202.782Z" fill="#FBE6EF"/>
<path d="M477.645 233.979C480 225.831 475.242 217.254 467.016 214.819C466.27 214.597 465.519 214.437 464.772 214.327C466.089 206.859 461.538 199.389 454.024 197.168C451.787 196.506 449.522 196.377 447.371 196.713C444.257 189.534 438.068 183.712 429.949 181.309C417.235 177.549 404.047 183.435 398.299 194.686C396.514 193.218 394.408 192.075 392.051 191.376C382.748 188.623 373.047 193.862 370.382 203.081C367.719 212.3 373.103 222.001 382.405 224.753C383.488 225.074 384.577 225.286 385.661 225.394C384.72 232.825 389.349 240.097 396.826 242.309C399.601 243.133 402.416 243.15 405.021 242.506C406.825 247.371 410.844 251.368 416.224 252.959C423.429 255.088 430.876 252.252 434.866 246.45C436.683 248.824 439.248 250.672 442.34 251.586C449.091 253.585 456.096 250.472 459.168 244.513C467.178 246.5 475.351 241.902 477.645 233.979Z" fill="#FAD5E5"/>
<path d="M492.527 226.206C492.14 220.269 487.017 215.765 481.089 216.152C480.552 216.187 480.026 216.26 479.511 216.369C478.605 211.13 473.881 207.308 468.464 207.66C466.851 207.767 465.346 208.229 464.022 208.968C460.301 204.989 454.899 202.647 449.048 203.025C439.885 203.619 432.683 210.686 431.594 219.487C430.086 218.951 428.444 218.706 426.747 218.816C420.04 219.25 414.961 225.049 415.4 231.762C415.837 238.475 421.629 243.573 428.338 243.136C429.118 243.085 429.88 242.961 430.608 242.773C431.749 247.894 436.474 251.568 441.869 251.218C443.87 251.087 445.707 250.422 447.253 249.366C449.574 252.132 453.132 253.797 457.011 253.545C462.204 253.209 466.388 249.536 467.612 244.753C469.357 245.877 471.463 246.475 473.692 246.333C478.562 246.016 482.388 242.274 482.981 237.606C488.666 236.987 492.905 231.98 492.527 226.206Z" fill="#FAD5E5"/>
<path d="M364.278 219.453C364.658 212.86 370.21 207.825 376.676 208.207C377.265 208.244 377.838 208.319 378.398 208.439C379.347 202.619 384.469 198.344 390.376 198.693C392.135 198.8 393.78 199.302 395.226 200.113C399.251 195.672 405.124 193.032 411.509 193.411C421.504 194 429.405 201.793 430.651 211.549C432.293 210.945 434.078 210.661 435.934 210.77C443.249 211.204 448.828 217.6 448.397 225.055C447.967 232.513 441.688 238.207 434.373 237.776C433.519 237.726 432.691 237.594 431.896 237.391C430.689 243.085 425.564 247.195 419.682 246.85C417.5 246.722 415.491 245.994 413.802 244.836C411.293 247.928 407.421 249.798 403.193 249.548C397.529 249.212 392.944 245.172 391.571 239.867C389.68 241.129 387.389 241.807 384.959 241.662C379.653 241.348 375.453 237.221 374.769 232.042C368.565 231.387 363.91 225.865 364.278 219.453Z" fill="#FAD5E5"/>
<path d="M364.278 219.453C364.658 212.86 370.21 207.825 376.676 208.207C377.265 208.244 377.838 208.319 378.398 208.439C379.347 202.619 384.469 198.344 390.376 198.693C392.135 198.8 393.78 199.302 395.226 200.113C399.251 195.672 405.124 193.032 411.509 193.411C421.504 194 429.405 201.793 430.652 211.549C432.293 210.945 434.078 210.661 435.934 210.77C443.249 211.204 448.828 217.6 448.397 225.055C447.967 232.513 441.688 238.207 434.373 237.776C433.519 237.726 432.691 237.594 431.896 237.391C430.689 243.085 425.564 247.195 419.682 246.85C417.5 246.722 415.491 245.994 413.802 244.836C411.293 247.928 407.421 249.798 403.193 249.548C397.529 249.212 392.944 245.172 391.571 239.867C389.68 241.129 387.389 241.807 384.959 241.662C379.653 241.348 375.453 237.221 374.769 232.042C368.565 231.387 363.91 225.865 364.278 219.453Z" fill="#FAD5E5"/>
<path d="M189.514 121.086C190.019 113.48 176.734 106.901 169.22 106.388C168.539 106.34 167.862 106.348 167.2 106.402C166.938 99.5985 161.639 93.9513 154.777 93.4808C152.73 93.3424 150.761 93.6777 148.976 94.3951C144.966 88.7195 138.569 84.8341 131.151 84.3286C119.533 83.5378 109.3 91.2971 106.46 102.288C104.653 101.352 102.631 100.766 100.478 100.621C91.9779 100.042 84.6221 106.544 84.048 115.147C83.4789 123.75 89.9025 131.193 98.4082 131.772C99.3977 131.84 100.372 131.807 101.321 131.691C101.895 138.39 107.225 143.847 114.059 144.314C116.593 144.484 119.015 143.948 121.131 142.871C123.586 146.778 127.78 149.49 132.696 149.826C139.28 150.273 145.15 146.319 147.494 140.447C149.495 142.168 152.041 143.283 154.868 143.476C161.04 143.895 166.474 139.788 168.005 133.959C175.255 134.122 189.021 128.483 189.514 121.086Z" fill="#FBE6EF"/>
<path d="M117.726 116.782C118.209 109.54 112.795 103.275 105.642 102.787C104.991 102.743 104.351 102.747 103.721 102.798C103.474 96.317 98.4251 90.9401 91.8901 90.4963C89.9431 90.3645 88.0704 90.6815 86.3665 91.3655C82.5468 85.9602 76.4576 82.2599 69.3923 81.7795C58.33 81.0271 48.5849 88.4143 45.8814 98.8812C44.159 97.992 42.2373 97.4314 40.1873 97.2929C32.092 96.7441 25.0892 102.937 24.5454 111.125C24 119.316 30.1196 126.401 38.215 126.954C39.1572 127.02 40.0843 126.99 40.9894 126.878C41.5382 133.256 46.6092 138.451 53.1189 138.895C55.5337 139.06 57.8403 138.55 59.8532 137.524C62.1903 141.244 66.1856 143.825 70.8631 144.145C77.1297 144.572 82.7207 140.807 84.9531 135.215C86.8596 136.857 89.2845 137.916 91.9745 138.099C97.8476 138.5 103.025 134.586 104.482 129.037C111.39 129.194 117.26 123.824 117.726 116.782Z" fill="#FBE6EF"/>
<path d="M155.645 147.979C158 139.831 153.242 131.254 145.016 128.819C144.27 128.597 143.519 128.437 142.772 128.327C144.089 120.859 139.538 113.389 132.024 111.168C129.787 110.506 127.522 110.377 125.371 110.713C122.257 103.534 116.068 97.7117 107.949 95.3094C95.2353 91.5491 82.047 97.4348 76.2989 108.686C74.514 107.218 72.4082 106.075 70.0509 105.376C60.7482 102.623 51.0469 107.862 48.3823 117.081C45.7193 126.3 51.1027 136.001 60.4054 138.753C61.4878 139.074 62.577 139.286 63.6611 139.394C62.7205 146.825 67.3491 154.097 74.8264 156.309C77.6008 157.133 80.4158 157.15 83.0213 156.506C84.8248 161.371 88.8438 165.368 94.2238 166.959C101.429 169.088 108.876 166.252 112.866 160.45C114.683 162.824 117.248 164.672 120.34 165.586C127.091 167.585 134.096 164.472 137.168 158.513C145.178 160.5 153.351 155.902 155.645 147.979Z" fill="#FAD5E5"/>
<path d="M170.527 140.206C170.14 134.269 165.017 129.765 159.089 130.152C158.552 130.187 158.026 130.26 157.511 130.369C156.605 125.13 151.881 121.308 146.463 121.66C144.851 121.767 143.346 122.229 142.022 122.968C138.301 118.989 132.899 116.647 127.048 117.025C117.885 117.619 110.683 124.686 109.594 133.487C108.086 132.951 106.444 132.706 104.747 132.816C98.0401 133.25 92.9607 139.049 93.3997 145.762C93.8371 152.475 99.6291 157.573 106.338 157.136C107.118 157.085 107.88 156.961 108.608 156.773C109.749 161.894 114.474 165.568 119.869 165.218C121.87 165.087 123.707 164.422 125.253 163.366C127.574 166.132 131.132 167.797 135.011 167.545C140.204 167.209 144.388 163.536 145.612 158.753C147.357 159.877 149.463 160.475 151.692 160.333C156.562 160.016 160.388 156.274 160.981 151.606C166.666 150.987 170.905 145.98 170.527 140.206Z" fill="#FAD5E5"/>
<path d="M42.2778 133.453C42.6578 126.86 48.21 121.825 54.6758 122.207C55.2652 122.244 55.8376 122.319 56.3982 122.439C57.3472 116.619 62.4689 112.344 68.3758 112.693C70.1353 112.8 71.78 113.302 73.2255 114.113C77.2512 109.672 83.1243 107.032 89.5091 107.411C99.5041 108 107.405 115.793 108.651 125.549C110.293 124.945 112.078 124.661 113.934 124.77C121.249 125.204 126.828 131.6 126.397 139.055C125.967 146.513 119.688 152.207 112.373 151.776C111.519 151.726 110.691 151.594 109.896 151.391C108.689 157.085 103.564 161.195 97.6821 160.85C95.5004 160.722 93.4909 159.994 91.8022 158.836C89.2929 161.928 85.4209 163.798 81.1925 163.548C75.5288 163.212 70.9442 159.172 69.5713 153.867C67.68 155.129 65.3885 155.807 62.9586 155.662C57.6529 155.348 53.4532 151.221 52.7693 146.042C46.5653 145.387 41.9097 139.865 42.2778 133.453Z" fill="#FAD5E5"/>
<path d="M42.2779 133.453C42.6578 126.86 48.21 121.825 54.6758 122.207C55.2652 122.244 55.8376 122.319 56.3983 122.439C57.3473 116.619 62.4689 112.344 68.3758 112.693C70.1353 112.8 71.7801 113.302 73.2255 114.113C77.2513 109.672 83.1244 107.032 89.5091 107.411C99.5042 108 107.405 115.793 108.652 125.549C110.293 124.945 112.078 124.661 113.934 124.77C121.249 125.204 126.828 131.6 126.397 139.055C125.967 146.513 119.688 152.207 112.373 151.776C111.519 151.726 110.691 151.594 109.896 151.391C108.689 157.085 103.564 161.195 97.6821 160.85C95.5004 160.722 93.4909 159.994 91.8023 158.836C89.293 161.928 85.4209 163.798 81.1925 163.548C75.5289 163.212 70.9442 159.172 69.5713 153.867C67.6801 155.129 65.3886 155.807 62.9586 155.662C57.6529 155.348 53.4533 151.221 52.7694 146.042C46.5653 145.387 41.9097 139.865 42.2779 133.453Z" fill="#FAD5E5"/>
<path d="M1293.51 628.086C1294.02 620.48 1280.73 613.901 1273.22 613.388C1272.54 613.34 1271.86 613.348 1271.2 613.402C1270.94 606.598 1265.64 600.951 1258.78 600.481C1256.73 600.342 1254.76 600.678 1252.98 601.395C1248.97 595.72 1242.57 591.834 1235.15 591.329C1223.53 590.538 1213.3 598.297 1210.46 609.288C1208.65 608.352 1206.63 607.766 1204.48 607.621C1195.98 607.042 1188.62 613.544 1188.05 622.147C1187.48 630.75 1193.9 638.193 1202.41 638.772C1203.4 638.84 1204.37 638.807 1205.32 638.691C1205.9 645.39 1211.22 650.847 1218.06 651.314C1220.59 651.484 1223.01 650.948 1225.13 649.871C1227.59 653.778 1231.78 656.49 1236.7 656.826C1243.28 657.273 1249.15 653.319 1251.49 647.447C1253.49 649.168 1256.04 650.283 1258.87 650.476C1265.04 650.895 1270.47 646.788 1272.01 640.959C1279.25 641.122 1293.02 635.483 1293.51 628.086Z" fill="#FBE6EF"/>
<path d="M1221.73 623.782C1222.21 616.54 1216.8 610.275 1209.64 609.787C1208.99 609.743 1208.35 609.747 1207.72 609.798C1207.47 603.317 1202.43 597.94 1195.89 597.496C1193.94 597.365 1192.07 597.681 1190.37 598.365C1186.55 592.96 1180.46 589.26 1173.39 588.779C1162.33 588.027 1152.58 595.414 1149.88 605.881C1148.16 604.992 1146.24 604.431 1144.19 604.293C1136.09 603.744 1129.09 609.937 1128.55 618.125C1128 626.316 1134.12 633.401 1142.21 633.954C1143.16 634.02 1144.08 633.99 1144.99 633.878C1145.54 640.256 1150.61 645.451 1157.12 645.895C1159.53 646.06 1161.84 645.55 1163.85 644.524C1166.19 648.244 1170.19 650.825 1174.86 651.145C1181.13 651.572 1186.72 647.807 1188.95 642.215C1190.86 643.857 1193.28 644.916 1195.97 645.099C1201.85 645.5 1207.02 641.586 1208.48 636.037C1215.39 636.194 1221.26 630.824 1221.73 623.782Z" fill="#FBE6EF"/>
<path d="M1259.64 654.979C1262 646.831 1257.24 638.254 1249.02 635.819C1248.27 635.597 1247.52 635.437 1246.77 635.327C1248.09 627.859 1243.54 620.389 1236.02 618.168C1233.79 617.506 1231.52 617.377 1229.37 617.713C1226.26 610.534 1220.07 604.712 1211.95 602.309C1199.24 598.549 1186.05 604.435 1180.3 615.686C1178.51 614.218 1176.41 613.075 1174.05 612.376C1164.75 609.623 1155.05 614.862 1152.38 624.081C1149.72 633.3 1155.1 643.001 1164.41 645.753C1165.49 646.074 1166.58 646.286 1167.66 646.394C1166.72 653.825 1171.35 661.097 1178.83 663.309C1181.6 664.133 1184.42 664.15 1187.02 663.506C1188.82 668.371 1192.84 672.368 1198.22 673.959C1205.43 676.088 1212.88 673.252 1216.87 667.45C1218.68 669.824 1221.25 671.672 1224.34 672.586C1231.09 674.585 1238.1 671.472 1241.17 665.513C1249.18 667.5 1257.35 662.902 1259.64 654.979Z" fill="#FAD5E5"/>
<path d="M1274.53 647.206C1274.14 641.269 1269.02 636.765 1263.09 637.152C1262.55 637.187 1262.03 637.26 1261.51 637.369C1260.61 632.13 1255.88 628.308 1250.46 628.66C1248.85 628.767 1247.35 629.229 1246.02 629.968C1242.3 625.989 1236.9 623.647 1231.05 624.025C1221.89 624.619 1214.68 631.686 1213.59 640.487C1212.09 639.951 1210.44 639.706 1208.75 639.816C1202.04 640.25 1196.96 646.049 1197.4 652.762C1197.84 659.475 1203.63 664.573 1210.34 664.136C1211.12 664.085 1211.88 663.961 1212.61 663.773C1213.75 668.894 1218.47 672.568 1223.87 672.218C1225.87 672.087 1227.71 671.422 1229.25 670.366C1231.57 673.132 1235.13 674.797 1239.01 674.545C1244.2 674.209 1248.39 670.536 1249.61 665.753C1251.36 666.877 1253.46 667.475 1255.69 667.333C1260.56 667.016 1264.39 663.274 1264.98 658.606C1270.67 657.987 1274.9 652.98 1274.53 647.206Z" fill="#FAD5E5"/>
<path d="M1146.28 640.453C1146.66 633.86 1152.21 628.825 1158.68 629.207C1159.27 629.244 1159.84 629.319 1160.4 629.439C1161.35 623.619 1166.47 619.344 1172.38 619.693C1174.14 619.8 1175.78 620.302 1177.23 621.113C1181.25 616.672 1187.12 614.032 1193.51 614.411C1203.5 615 1211.41 622.793 1212.65 632.549C1214.29 631.945 1216.08 631.661 1217.93 631.77C1225.25 632.204 1230.83 638.6 1230.4 646.055C1229.97 653.513 1223.69 659.207 1216.37 658.776C1215.52 658.726 1214.69 658.594 1213.9 658.391C1212.69 664.085 1207.56 668.195 1201.68 667.85C1199.5 667.722 1197.49 666.994 1195.8 665.836C1193.29 668.928 1189.42 670.798 1185.19 670.548C1179.53 670.212 1174.94 666.172 1173.57 660.867C1171.68 662.129 1169.39 662.807 1166.96 662.662C1161.65 662.348 1157.45 658.221 1156.77 653.042C1150.57 652.387 1145.91 646.865 1146.28 640.453Z" fill="#FAD5E5"/>
<path d="M1146.28 640.453C1146.66 633.86 1152.21 628.825 1158.68 629.207C1159.27 629.244 1159.84 629.319 1160.4 629.439C1161.35 623.619 1166.47 619.344 1172.38 619.693C1174.14 619.8 1175.78 620.302 1177.23 621.113C1181.25 616.672 1187.12 614.032 1193.51 614.411C1203.5 615 1211.41 622.793 1212.65 632.549C1214.29 631.945 1216.08 631.661 1217.93 631.77C1225.25 632.204 1230.83 638.6 1230.4 646.055C1229.97 653.513 1223.69 659.207 1216.37 658.776C1215.52 658.726 1214.69 658.594 1213.9 658.391C1212.69 664.085 1207.56 668.195 1201.68 667.85C1199.5 667.722 1197.49 666.994 1195.8 665.836C1193.29 668.928 1189.42 670.798 1185.19 670.548C1179.53 670.212 1174.94 666.172 1173.57 660.867C1171.68 662.129 1169.39 662.807 1166.96 662.662C1161.65 662.348 1157.45 658.221 1156.77 653.042C1150.57 652.387 1145.91 646.865 1146.28 640.453Z" fill="#FAD5E5"/>
<path d="M481.514 618.086C482.019 610.48 468.734 603.901 461.22 603.388C460.539 603.34 459.862 603.348 459.2 603.402C458.938 596.598 453.639 590.951 446.777 590.481C444.73 590.342 442.761 590.678 440.976 591.395C436.966 585.72 430.569 581.834 423.151 581.329C411.533 580.538 401.3 588.297 398.46 599.288C396.653 598.352 394.631 597.766 392.478 597.621C383.978 597.042 376.622 603.544 376.048 612.147C375.479 620.75 381.903 628.193 390.408 628.772C391.398 628.84 392.372 628.807 393.321 628.691C393.895 635.39 399.225 640.847 406.059 641.314C408.593 641.484 411.015 640.948 413.131 639.871C415.586 643.778 419.78 646.49 424.696 646.826C431.28 647.273 437.15 643.319 439.494 637.447C441.495 639.168 444.041 640.283 446.868 640.476C453.04 640.895 458.474 636.788 460.005 630.959C467.255 631.122 481.021 625.483 481.514 618.086Z" fill="#FBE6EF"/>
<path d="M409.726 613.782C410.209 606.54 404.795 600.275 397.642 599.787C396.991 599.743 396.351 599.747 395.721 599.798C395.474 593.317 390.425 587.94 383.89 587.496C381.943 587.365 380.07 587.681 378.367 588.365C374.547 582.96 368.458 579.26 361.392 578.779C350.33 578.027 340.585 585.414 337.881 595.881C336.159 594.992 334.237 594.431 332.187 594.293C324.092 593.744 317.089 599.937 316.545 608.125C316 616.316 322.12 623.401 330.215 623.954C331.157 624.02 332.084 623.99 332.989 623.878C333.538 630.256 338.609 635.451 345.119 635.895C347.534 636.06 349.84 635.55 351.853 634.524C354.19 638.244 358.186 640.825 362.863 641.145C369.13 641.572 374.721 637.807 376.953 632.215C378.86 633.857 381.284 634.916 383.974 635.099C389.848 635.5 395.025 631.586 396.482 626.037C403.39 626.194 409.26 620.824 409.726 613.782Z" fill="#FBE6EF"/>
<path d="M447.645 644.979C450 636.831 445.242 628.254 437.016 625.819C436.27 625.597 435.519 625.437 434.772 625.327C436.089 617.859 431.538 610.389 424.024 608.168C421.787 607.506 419.522 607.377 417.371 607.713C414.257 600.534 408.068 594.712 399.949 592.309C387.235 588.549 374.047 594.435 368.299 605.686C366.514 604.218 364.408 603.075 362.051 602.376C352.748 599.623 343.047 604.862 340.382 614.081C337.719 623.3 343.103 633.001 352.405 635.753C353.488 636.074 354.577 636.286 355.661 636.394C354.72 643.825 359.349 651.097 366.826 653.309C369.601 654.133 372.416 654.15 375.021 653.506C376.825 658.371 380.844 662.368 386.224 663.959C393.429 666.088 400.876 663.252 404.866 657.45C406.683 659.824 409.248 661.672 412.34 662.586C419.091 664.585 426.096 661.472 429.168 655.513C437.178 657.5 445.351 652.902 447.645 644.979Z" fill="#FAD5E5"/>
<path d="M462.527 637.206C462.14 631.269 457.017 626.765 451.089 627.152C450.552 627.187 450.026 627.26 449.511 627.369C448.605 622.13 443.881 618.308 438.464 618.66C436.851 618.767 435.346 619.229 434.022 619.968C430.301 615.989 424.899 613.647 419.048 614.025C409.885 614.619 402.683 621.686 401.594 630.487C400.086 629.951 398.444 629.706 396.747 629.816C390.04 630.25 384.961 636.049 385.4 642.762C385.837 649.475 391.629 654.573 398.338 654.136C399.118 654.085 399.88 653.961 400.608 653.773C401.749 658.894 406.474 662.568 411.869 662.218C413.87 662.087 415.707 661.422 417.253 660.366C419.574 663.132 423.132 664.797 427.011 664.545C432.204 664.209 436.388 660.536 437.612 655.753C439.357 656.877 441.463 657.475 443.692 657.333C448.562 657.016 452.388 653.274 452.981 648.606C458.666 647.987 462.905 642.98 462.527 637.206Z" fill="#FAD5E5"/>
<path d="M334.278 630.453C334.658 623.86 340.21 618.825 346.676 619.207C347.265 619.244 347.838 619.319 348.398 619.439C349.347 613.619 354.469 609.344 360.376 609.693C362.135 609.8 363.78 610.302 365.226 611.113C369.251 606.672 375.124 604.032 381.509 604.411C391.504 605 399.405 612.793 400.651 622.549C402.293 621.945 404.078 621.661 405.934 621.77C413.249 622.204 418.828 628.6 418.397 636.055C417.967 643.513 411.688 649.207 404.373 648.776C403.519 648.726 402.691 648.594 401.896 648.391C400.689 654.085 395.564 658.195 389.682 657.85C387.5 657.722 385.491 656.994 383.802 655.836C381.293 658.928 377.421 660.798 373.193 660.548C367.529 660.212 362.944 656.172 361.571 650.867C359.68 652.129 357.389 652.807 354.959 652.662C349.653 652.348 345.453 648.221 344.769 643.042C338.565 642.387 333.91 636.865 334.278 630.453Z" fill="#FAD5E5"/>
<path d="M178.514 643.086C179.019 635.48 165.734 628.901 158.22 628.388C157.539 628.34 156.862 628.348 156.2 628.402C155.938 621.598 150.639 615.951 143.777 615.481C141.73 615.342 139.761 615.678 137.976 616.395C133.966 610.72 127.569 606.834 120.151 606.329C108.533 605.538 98.2999 613.297 95.4596 624.288C93.6528 623.352 91.6315 622.766 89.4785 622.621C80.9779 622.042 73.6221 628.544 73.048 637.147C72.4789 645.75 78.9025 653.193 87.4082 653.772C88.3977 653.84 89.3721 653.807 90.3211 653.691C90.8952 660.39 96.2246 665.847 103.059 666.314C105.593 666.484 108.015 665.948 110.131 664.871C112.586 668.778 116.78 671.49 121.696 671.826C128.28 672.273 134.15 668.319 136.494 662.447C138.495 664.168 141.041 665.283 143.868 665.476C150.04 665.895 155.474 661.788 157.005 655.959C164.255 656.122 178.021 650.483 178.514 643.086Z" fill="#FBE6EF"/>
<path d="M106.726 638.782C107.209 631.54 101.795 625.275 94.6423 624.787C93.9905 624.743 93.3505 624.747 92.7207 624.798C92.4741 618.317 87.4251 612.94 80.8901 612.496C78.9431 612.365 77.0704 612.681 75.3665 613.365C71.5468 607.96 65.4576 604.26 58.3923 603.779C47.33 603.027 37.5849 610.414 34.8814 620.881C33.159 619.992 31.2373 619.431 29.1873 619.293C21.092 618.744 14.0892 624.937 13.5454 633.125C13 641.316 19.1196 648.401 27.215 648.954C28.1572 649.02 29.0843 648.99 29.9894 648.878C30.5382 655.256 35.6092 660.451 42.1189 660.895C44.5337 661.06 46.8403 660.55 48.8532 659.524C51.1903 663.244 55.1856 665.825 59.8631 666.145C66.1297 666.572 71.7207 662.807 73.9531 657.215C75.8596 658.857 78.2845 659.916 80.9745 660.099C86.8476 660.5 92.0249 656.586 93.4822 651.037C100.39 651.194 106.26 645.824 106.726 638.782Z" fill="#FBE6EF"/>
<path d="M144.645 669.979C147 661.831 142.242 653.254 134.016 650.819C133.27 650.597 132.519 650.437 131.772 650.327C133.089 642.859 128.538 635.389 121.024 633.168C118.787 632.506 116.522 632.377 114.371 632.713C111.257 625.534 105.068 619.712 96.949 617.309C84.2353 613.549 71.047 619.435 65.2989 630.686C63.514 629.218 61.4082 628.075 59.0509 627.376C49.7482 624.623 40.0469 629.862 37.3823 639.081C34.7193 648.3 40.1027 658.001 49.4054 660.753C50.4878 661.074 51.577 661.286 52.6611 661.394C51.7205 668.825 56.3491 676.097 63.8264 678.309C66.6008 679.133 69.4158 679.15 72.0213 678.506C73.8248 683.371 77.8438 687.368 83.2238 688.959C90.4292 691.088 97.8761 688.252 101.866 682.45C103.683 684.824 106.248 686.672 109.34 687.586C116.091 689.585 123.096 686.472 126.168 680.513C134.178 682.5 142.351 677.902 144.645 669.979Z" fill="#FAD5E5"/>
<path d="M159.527 662.206C159.14 656.269 154.017 651.765 148.089 652.152C147.552 652.187 147.026 652.26 146.511 652.369C145.605 647.13 140.881 643.308 135.463 643.66C133.851 643.767 132.346 644.229 131.022 644.968C127.301 640.989 121.899 638.647 116.048 639.025C106.885 639.619 99.6829 646.686 98.5938 655.487C97.0858 654.951 95.4444 654.706 93.7474 654.816C87.0401 655.25 81.9607 661.049 82.3997 667.762C82.8371 674.475 88.6291 679.573 95.3381 679.136C96.1182 679.085 96.8798 678.961 97.6076 678.773C98.7491 683.894 103.474 687.568 108.869 687.218C110.87 687.087 112.707 686.422 114.253 685.366C116.574 688.132 120.132 689.797 124.011 689.545C129.204 689.209 133.388 685.536 134.612 680.753C136.357 681.877 138.463 682.475 140.692 682.333C145.562 682.016 149.388 678.274 149.981 673.606C155.666 672.987 159.905 667.98 159.527 662.206Z" fill="#FAD5E5"/>
<path d="M31.2778 655.453C31.6578 648.86 37.21 643.825 43.6758 644.207C44.2652 644.244 44.8376 644.319 45.3982 644.439C46.3473 638.619 51.4689 634.344 57.3758 634.693C59.1353 634.8 60.7801 635.302 62.2255 636.113C66.2512 631.672 72.1243 629.032 78.5091 629.411C88.5041 630 96.4053 637.793 97.6515 647.549C99.2929 646.945 101.078 646.661 102.934 646.77C110.249 647.204 115.828 653.6 115.397 661.055C114.967 668.513 108.688 674.207 101.373 673.776C100.519 673.726 99.6914 673.594 98.896 673.391C97.6886 679.085 92.5636 683.195 86.6821 682.85C84.5004 682.722 82.4909 681.994 80.8023 680.836C78.2929 683.928 74.4209 685.798 70.1925 685.548C64.5288 685.212 59.9442 681.172 58.5713 675.867C56.68 677.129 54.3886 677.807 51.9586 677.662C46.6529 677.348 42.4532 673.221 41.7693 668.042C35.5653 667.387 30.9097 661.865 31.2778 655.453Z" fill="#FAD5E5"/>
</svg>
